<svg width="333" height="51" viewBox="0 0 333 51" fill="none" xmlns="http://www.w3.org/2000/svg">
<path fill-rule="evenodd" clip-rule="evenodd" d="M21.4773 9.62793V30.314H22.5524C24.9166 30.314 26.8315 32.4921 26.8315 35.1813V46.1327C26.8315 48.8219 24.9166 51 22.5524 51H4.63384C1.25872 51 -0.982439 47.021 0.429654 43.5348L5.77314 30.3201L0.429654 17.0992C-0.982439 13.613 1.25872 9.63401 4.63384 9.63401L21.4773 9.62793Z" fill="#3364D5"/>
<path fill-rule="evenodd" clip-rule="evenodd" d="M332.536 43.5348C333.948 47.021 331.707 51 328.331 51H310.413C308.049 51 306.134 48.8219 306.134 46.1327V35.1813C306.134 32.4921 308.049 30.314 310.413 30.314H311.488V9.62793L328.331 9.63401C331.707 9.63401 333.948 13.613 332.536 17.0992L327.192 30.3201L332.536 43.5348Z" fill="#3364D5"/>
<rect x="15.5117" width="301.767" height="42.4419" rx="6" fill="#5084FA"/>
</svg>
