<svg width="67" height="40" viewBox="0 0 67 40" fill="none" xmlns="http://www.w3.org/2000/svg">
<path d="M2.95529 30C6.39929 30 9.08729 28.446 10.5153 25.59C11.5233 23.574 11.5653 21.642 11.5653 21.432V3.03598C11.5653 1.69198 10.4733 0.599976 9.08729 0.599976C7.74329 0.599976 6.65129 1.69198 6.65129 3.03598V21.432C6.65129 21.894 6.27329 25.086 2.95529 25.086C1.61129 25.086 0.519287 26.178 0.519287 27.564C0.519287 28.908 1.61129 30 2.95529 30Z" fill="#FB2261"/>
<path fill-rule="evenodd" clip-rule="evenodd" d="M28.0132 28.446C25.9972 29.79 23.8972 30 22.7212 30C22.3852 30 22.1332 30 21.9652 29.958C19.4032 29.832 17.1772 28.74 15.6652 26.85C14.2792 25.086 13.5652 22.776 13.5652 20.172C13.5652 14.754 17.4292 10.386 22.1332 10.386C24.4852 10.386 26.6692 11.352 28.2652 13.158C29.8612 14.88 30.7012 17.232 30.7012 19.752C30.7012 21.096 29.6092 22.23 28.2652 22.23H18.7312C19.1512 23.574 20.0752 25.002 22.2172 25.086L22.5935 25.0858C23.2457 25.083 24.3408 25.0387 25.3252 24.33C25.7452 24.078 26.2072 23.952 26.6692 23.952C27.4672 23.952 28.2652 24.33 28.7272 25.044C29.0212 25.422 29.1472 25.884 29.1472 26.346C29.1472 27.144 28.7272 27.984 28.0132 28.446ZM19.1932 17.316H25.2832C24.6532 16.056 23.5192 15.258 22.1332 15.258C20.9572 15.258 19.8652 16.098 19.1932 17.316Z" fill="#FB2261"/>
<path d="M35.1372 30C36.5232 30 37.6152 28.908 37.6152 27.564V3.03598C37.6152 1.69198 36.5232 0.599976 35.1372 0.599976C33.7932 0.599976 32.7012 1.69198 32.7012 3.03598V27.564C32.7012 28.908 33.7932 30 35.1372 30Z" fill="#FB2261"/>
<path d="M43.0512 30C44.4372 30 45.5292 28.908 45.5292 27.564V3.03598C45.5292 1.69198 44.4372 0.599976 43.0512 0.599976C41.7072 0.599976 40.6152 1.69198 40.6152 3.03598V27.564C40.6152 28.908 41.7072 30 43.0512 30Z" fill="#FB2261"/>
<path d="M52.4433 39.786C53.3673 39.786 54.2493 39.282 54.6693 38.358L58.8693 29.076L59.1633 28.614L66.1353 13.914C66.3033 13.578 66.3873 13.242 66.3873 12.864C66.3873 11.94 65.8833 11.058 65.0013 10.638C64.6653 10.47 64.2873 10.386 63.9513 10.386C63.0273 10.386 62.1453 10.932 61.7253 11.814L56.9793 21.852L52.1913 11.814C51.7713 10.932 50.8893 10.386 49.9653 10.386C49.6293 10.386 49.2513 10.47 48.9153 10.638C48.0333 11.058 47.5293 11.94 47.5293 12.864C47.5293 13.242 47.6133 13.578 47.7813 13.914L54.2073 27.48L50.2173 36.342C50.0493 36.678 50.0073 37.014 50.0073 37.35C50.0073 38.274 50.5113 39.198 51.3933 39.576C51.7293 39.744 52.1073 39.786 52.4433 39.786Z" fill="#FB2261"/>
</svg>
