<svg width="50" height="60" viewBox="0 0 50 60" fill="none" xmlns="http://www.w3.org/2000/svg">
<path d="M3.60508 59.9283C11.7426 57.2256 19.6697 53.9208 27.2729 49.9518C34.0087 46.4366 40.5103 42.4382 46.6533 37.9623C49.0193 36.2367 50.7047 33.4388 48.474 30.8001C47.2791 29.3856 45.57 28.2401 44.1427 27.069C42.8178 25.9802 41.4838 24.9024 40.137 23.841C28.7807 14.8947 16.6119 7.00787 3.83199 0.250075C3.37817 0.0103595 2.92985 -0.0427074 2.51995 0.0304883C1.68735 0.125643 0.916969 0.67461 0.790707 1.70301C0.7413 1.90979 0.726661 2.12205 0.750449 2.32883C0.602228 5.06452 0.507074 7.80204 0.415579 10.5396C0.128286 19.1583 -0.0382341 27.7826 0.00751317 36.4051C0.0477708 43.6752 -0.0784918 51.2199 1.22256 58.4022C1.40006 59.3794 2.6023 60.2614 3.60508 59.9283Z" fill="#EC133A"/>
<g style="mix-blend-mode:screen" opacity="0.871">
<path d="M18.1381 24.2271C21.0257 24.1503 23.0166 20.8528 24.2298 18.6332C25.0734 17.0887 25.7889 15.4711 26.4129 13.8169C21.9168 10.7701 17.3165 7.87888 12.6228 5.14319C11.373 8.79382 11.0363 12.9605 11.5999 16.4904C12.083 19.528 14.407 24.3278 18.1381 24.2271Z" fill="#EC133A"/>
</g>
<g style="mix-blend-mode:screen" opacity="0.871">
<path d="M33.0461 26.2217C36.1825 27.81 38.8121 26.5657 40.7847 24.3625C40.567 24.1905 40.3547 24.013 40.1369 23.841C37.0609 21.4182 33.9244 19.076 30.7349 16.8105C28.9929 20.108 29.1759 24.2619 33.0461 26.2217Z" fill="#EC133A"/>
</g>
<path d="M0.141113 47.4229C2.24549 46.9727 4.33157 46.4274 6.39019 45.8144C14.2972 43.4611 22.0028 40.1417 29.0186 35.7884C33.6501 32.9136 38.2815 29.4496 41.7492 25.1274C42.5507 25.7697 43.3485 26.4157 44.1427 27.069C45.57 28.2401 47.2773 29.3856 48.474 30.8001C50.7047 33.4388 49.0194 36.2367 46.6533 37.9623C40.5104 42.4382 34.0088 46.4365 27.2729 49.9518C19.6697 53.9208 11.7426 57.2256 3.6051 59.9283C2.60232 60.2614 1.40008 59.3794 1.22258 58.4022C0.571138 54.8065 0.278355 51.1211 0.141113 47.4229Z" fill="white"/>
<path d="M0.344238 51.1759C2.37725 50.5684 4.40477 49.9353 6.41765 49.2619C20.4657 44.5645 34.4223 38.0867 45.5389 28.1687C46.5874 28.983 47.6524 29.8284 48.474 30.8001C50.7047 33.4388 49.0194 36.2367 46.6533 37.9623C40.5104 42.4382 34.0088 46.4365 27.2729 49.9517C19.6697 53.9208 11.7426 57.2256 3.60511 59.9283C2.60232 60.2614 1.40009 59.3794 1.22259 58.4022C0.792562 56.0252 0.519908 53.6097 0.344238 51.1759Z" fill="#41A13B"/>
<g style="mix-blend-mode:screen" opacity="0.502">
<path d="M30.5723 38.7656C33.5769 37.062 36.4938 35.2138 39.2807 33.1936C40.084 33.8084 40.8874 34.4233 41.6925 35.0363C43.1583 36.1507 44.6331 37.2505 46.1135 38.3466C43.1967 40.451 40.1993 42.4492 37.1379 44.3413C34.8725 42.5663 32.662 40.7328 30.5723 38.7656Z" fill="#41A13B"/>
</g>
<g style="mix-blend-mode:screen" opacity="0.502">
<path d="M11.2632 47.5638C14.2386 46.4713 17.1975 45.2911 20.1107 44.0028C20.8299 46.7824 21.5289 49.6773 21.9534 52.5923C18.7017 54.1313 15.3951 55.5531 12.0445 56.8688C12.0354 53.7415 11.7939 50.6325 11.2632 47.5638Z" fill="#41A13B"/>
</g>
<g style="mix-blend-mode:multiply" opacity="0.2">
<path d="M1.22256 58.4022C-0.0784918 51.2199 0.0477708 43.6752 0.00751317 36.4051C-0.0382341 27.7826 0.128286 19.1583 0.415579 10.5396C0.507074 7.80203 0.602228 5.06451 0.750449 2.33066C0.726661 2.12205 0.7413 1.90978 0.790707 1.703C0.618697 3.07908 1.3415 5.30606 1.54096 6.73887C2.13019 10.9568 2.73954 15.171 3.4166 19.3761C4.19797 24.2235 5.04155 29.069 6.1102 33.8634C6.90255 37.4152 7.66744 44.4786 11.1168 46.3139C12.6301 47.1209 14.4069 47.2582 16.1234 47.2435C21.8198 47.1941 27.3772 45.6369 32.5979 43.4428C35.3189 42.2992 37.9448 40.9615 40.5469 39.5744C41.4472 39.0932 47.8757 36.3557 47.8921 35.7408C47.8885 35.8524 48.0001 35.9714 48.1318 35.9019C48.4045 35.7573 48.6771 35.6146 48.9498 35.4682C48.4283 36.4179 47.5957 37.2743 46.6533 37.9623C40.5103 42.4382 34.0087 46.4365 27.2729 49.9518C19.6697 53.9208 11.7426 57.2256 3.60508 59.9283C2.6023 60.2614 1.40006 59.3794 1.22256 58.4022Z" fill="#3D3232"/>
</g>
<path d="M5.18438 7.14333C6.36649 6.52116 6.95206 4.88707 6.25487 3.69581C5.55585 2.50089 4.07364 1.95924 2.80919 2.62532C1.62708 3.24749 1.04151 4.88158 1.7387 6.07284C2.43589 7.26776 3.9181 7.80941 5.18438 7.14333Z" fill="white"/>
<path d="M8.79098 8.63833C13.0034 11.2825 16.665 14.6733 20.7932 17.4383C22.2315 18.4008 23.8858 16.3568 22.7073 15.107C19.1628 11.3466 14.7217 8.81034 10.383 6.08563C8.74523 5.05723 7.14773 7.60627 8.79098 8.63833Z" fill="white"/>
<path d="M6.10835 53.0004C5.62343 49.2674 5.60147 45.4997 5.79727 41.7448C5.91072 39.5763 2.69011 39.4775 2.45771 41.5965C2.01305 45.6534 2.28936 49.6663 3.03962 53.672C3.41841 55.6849 6.36636 54.9749 6.10835 53.0004Z" fill="white"/>
<path d="M44.2178 36.8735C44.7869 36.2404 45.4713 35.7335 46.1282 35.1937C46.9407 34.5295 46.7833 33.2101 46.033 32.5953C45.2572 31.9585 43.9945 32.0975 43.4657 33.007C43.0393 33.7389 42.6477 34.4892 42.1171 35.1498C41.6944 35.6731 41.9396 36.5442 42.4172 36.9248C42.9131 37.3182 43.753 37.3877 44.2178 36.8735Z" fill="white"/>
<path d="M7.57611 55.7929C8.14154 56.1643 8.84971 56.3894 9.5286 56.3729C9.94948 56.362 10.3338 56.3126 10.7272 56.1698C11.2579 55.9758 11.6202 55.5769 11.9203 55.1103C12.7675 53.7983 11.2121 52.1001 9.83602 52.865C9.68231 52.951 9.51579 53.0078 9.36391 53.0974C9.19739 53.1962 9.051 53.328 8.89912 53.4469C9.07296 53.3115 9.04734 53.3591 8.87716 53.4524C8.84788 53.4671 8.60085 53.5787 8.76554 53.5165C8.93023 53.4524 8.67404 53.5348 8.63927 53.5403C8.61183 53.5476 8.37943 53.5695 8.49105 53.5659C8.61549 53.5622 8.26964 53.5384 8.27513 53.5403C7.0125 53.4067 6.60626 55.1579 7.57611 55.7929Z" fill="white"/>
</svg>
