<svg width="12" height="12" viewBox="0 0 12 12" fill="none" xmlns="http://www.w3.org/2000/svg">
<path fill-rule="evenodd" clip-rule="evenodd" d="M0.466563 11.5272C0.775828 11.8436 1.18107 12 1.58631 12C1.99511 12 2.40036 11.8436 2.70962 11.5272L5.92556 8.27175L9.14019 11.5272C9.44946 11.8436 9.85825 12 10.2635 12C10.6687 12 11.0775 11.8436 11.3868 11.5272C12.0053 10.9016 12.0053 9.88491 11.3868 9.25572L8.17017 5.99956L11.3868 2.74339C12.0053 2.11775 12.0053 1.09753 11.3868 0.471895C10.7647 -0.157298 9.76227 -0.157298 9.14019 0.471895L5.92556 3.72736L2.70962 0.471895C2.09109 -0.157298 1.08509 -0.157298 0.466563 0.471895C-0.155521 1.09753 -0.155521 2.11775 0.466563 2.74339L3.68188 5.99956L0.466563 9.25572C-0.155521 9.88491 -0.155521 10.9016 0.466563 11.5272ZM3.68188 5.99956L5.92556 8.27175L8.17017 5.99956L5.92556 3.72736L3.68188 5.99956Z" fill="#494F6D"/>
</svg>
