<svg width="31" height="33" viewBox="0 0 31 33" fill="none" xmlns="http://www.w3.org/2000/svg">
<path fill-rule="evenodd" clip-rule="evenodd" d="M27.3198 29.3593C27.3198 30.5736 26.3319 31.5574 25.1135 31.5574C24.4219 31.5574 23.8086 31.2404 23.4052 30.7465C23.1788 30.4624 22.7589 30.4789 22.5614 30.7835C21.8904 31.8167 20.7255 32.5 19.4001 32.5H18.8814C17.6054 32.5 16.4775 31.8661 15.7983 30.8946C15.5884 30.5983 15.1603 30.5983 14.9545 30.8946C14.2753 31.8661 13.1474 32.5 11.8673 32.5H11.3527C10.0232 32.5 8.85825 31.8167 8.19141 30.7835C7.99383 30.4789 7.57396 30.4624 7.34345 30.7465C6.94417 31.2404 6.33085 31.5574 5.63931 31.5574C4.42089 31.5574 3.43298 30.5736 3.43298 29.3593V25.2224C1.2884 22.6168 0 19.3032 0 15.685C0 7.29599 6.88243 0.5 15.3743 0.5C23.8703 0.5 30.7528 7.29599 30.7528 15.685C30.7528 19.3032 29.4603 22.6168 27.3198 25.2265V29.3593ZM12.8223 18.233C12.8223 15.7797 10.8218 13.7915 8.35199 13.7915C5.88222 13.7915 3.87759 15.7797 3.87759 18.233C3.87759 20.6821 5.88222 22.6744 8.35199 22.6744C10.8218 22.6744 12.8223 20.6821 12.8223 18.233ZM17.0536 25.3171C17.0536 25.2183 17.033 25.1277 17.0001 25.0413V25.0413H16.996C16.9795 24.996 16.9548 24.9549 16.9301 24.9178L15.9422 23.0614V23.0614C15.8393 22.8308 15.6253 22.6703 15.3742 22.6703C15.1231 22.6703 14.909 22.8308 14.8061 23.0614V23.0614L13.8347 24.8931C13.7976 24.9466 13.7647 25.0042 13.7441 25.066V25.066V25.066C13.7153 25.1442 13.6988 25.2306 13.6988 25.3171C13.6988 25.6958 13.9787 26.0045 14.3286 26.0045H16.4238C16.7696 26.0045 17.0536 25.6958 17.0536 25.3171ZM26.8712 18.233C26.8712 15.7797 24.8666 13.7915 22.4009 13.7915C19.9312 13.7915 17.9265 15.7797 17.9265 18.233C17.9265 20.6821 19.9312 22.6744 22.4009 22.6744C24.8666 22.6744 26.8712 20.6821 26.8712 18.233Z" fill="white"/>
</svg>
