<?xml version="1.0" encoding="UTF-8"?>
<svg width="32px" height="32px" viewBox="0 0 32 32" version="1.1" xmlns="http://www.w3.org/2000/svg" xmlns:xlink="http://www.w3.org/1999/xlink">
    <title>bnb_icon</title>
    <g id="Page-1" stroke="none" stroke-width="1" fill="none" fill-rule="evenodd">
        <g id="Salad---Place-a-Bet" transform="translate(-789.000000, -702.000000)" fill-rule="nonzero">
            <g id="Group-2" transform="translate(510.000000, 248.000000)">
                <g id="bnb-input" transform="translate(94.000000, 440.000000)">
                    <g id="Group" transform="translate(185.000000, 14.000000)">
                        <circle id="Ellipse" fill="#F3BA2C" cx="16" cy="16" r="16"></circle>
                        <path d="M20.3392647,17.7802396 L22.8650557,20.3027072 L22.8628401,20.303815 L16,27.1677629 L9.13494426,20.3027072 L11.6618431,17.7824552 L16,22.1195043 L20.3392647,17.7802396 Z M16,13.4376515 L18.5612407,15.9988922 L18.5634563,15.9988922 L16.0011078,18.5612407 L13.4387593,15.9988922 L16,13.4376515 Z M24.6437947,13.477666 L27.1676761,16.0015474 L24.6437947,18.5254288 L22.1199133,16.0015474 L24.6437947,13.477666 Z M7.35597059,13.4763139 L9.879852,16.0001953 L7.35597059,18.5240767 L4.83208918,16.0001953 L7.35597059,13.4763139 Z M16,4.83223707 L22.8628401,11.696185 L20.3392647,14.2197604 L16,9.88049574 L11.6618431,14.2175448 L9.13826767,11.6939694 L16,4.83223707 Z" id="Shape" fill="#FFFFFF"></path>
                    </g>
                </g>
            </g>
        </g>
    </g>
</svg>